Coordinates
version=1
nRows=20
nColumns=38
inDegrees=no

Units are S.I. units (second, meters, Newtons, ...)
If the header above contains a line with 'inDegrees', this indicates whether rotational values are in degrees (yes) or radians (no).

endheader
time	pelvis_tilt	pelvis_list	pelvis_rotation	pelvis_tx	pelvis_ty	pelvis_tz	hip_flexion_r	hip_adduction_r	hip_rotation_r	knee_angle_r	ankle_angle_r	subtalar_angle_r	mtp_angle_r	hip_flexion_l	hip_adduction_l	hip_rotation_l	knee_angle_l	ankle_angle_l	subtalar_angle_l	mtp_angle_l	lumbar_extension	lumbar_bending	lumbar_rotation	arm_flex_r	arm_add_r	arm_rot_r	elbow_flex_r	pro_sup_r	wrist_flex_r	wrist_dev_r	arm_flex_l	arm_add_l	arm_rot_l	elbow_flex_l	pro_sup_l	wrist_flex_l	wrist_dev_l
0	-2.76578	1.45004	-2.20773	0.890828	-0.788204	0.911927	-0.350748	-0.0783157	-0.299597	0.279474	0.309727	0	0	0.295515	0.0332156	-0.428366	0.0401976	0.0443456	0	0	-0.0459896	-0.0700899	0.339436	0.356599	-0.426882	-0.276928	1.57805	1.5708	0	0	0.473523	-0.485562	-0.0243965	1.71511	0.471075	0	0
0.01	-2.95103	1.4399	-2.02301	0.891785	-0.774051	0.913457	-0.384241	-0.0701418	-0.32714	0.284836	0.305834	0	0	0.264307	0.021709	-0.427881	0.0648528	0.0476921	0	0	-0.0645596	-0.0527588	0.340445	0.353795	-0.430675	-0.276213	1.57587	1.5708	0	0	0.480428	-0.454092	-0.207533	1.84416	0.471075	0	0
0.02	-2.73916	1.43329	-2.25759	0.894813	-0.759909	0.909833	-0.370103	-0.115817	-0.292468	0.324648	0.31263	0	0	0.260242	0.0523446	-0.452445	0.0708727	0.0538728	0	0	-0.04419	-0.0821567	0.361698	0.347094	-0.427403	-0.26732	1.57506	1.5708	0	0	0.463316	-0.504161	0.0524486	1.73074	0.761496	0	0
0.03	-2.76887	1.43623	-2.21905	0.895849	-0.748336	0.907869	-0.369036	-0.112478	-0.29226	0.354233	0.307169	0	0	0.261979	0.0497967	-0.427428	0.0902402	0.0646119	0	0	-0.0460245	-0.080479	0.355233	0.34655	-0.42584	-0.269771	1.57511	1.5708	0	0	0.473994	-0.507177	0.0594528	1.72106	0.84975	0	0
0.04	-2.79455	1.42999	-2.19937	0.895803	-0.732997	0.908287	-0.361324	-0.163605	-0.354436	0.474758	0.274558	0	0	0.238211	0.0586508	-0.417806	0.0782747	0.0492529	0	0	-0.04663	-0.0772878	0.3593	0.341153	-0.424959	-0.271169	1.57226	1.5708	0	0	0.463691	-0.502947	0.0523786	1.71698	0.913503	0	0
0.05	-2.68543	1.42466	-2.30231	0.897638	-0.721033	0.906366	-0.355506	-0.153405	-0.304107	0.444227	0.29225	0	0	0.23933	0.0798698	-0.401366	0.0765923	0.00343257	0	0	-0.0412478	-0.100097	0.354594	0.338118	-0.415481	-0.270485	1.57143	1.5708	0	0	0.46866	-0.510078	0.0503532	1.71865	0.958793	0	0
0.06	-2.67747	1.41869	-2.30665	0.898091	-0.707202	0.906352	-0.348986	-0.168434	-0.299904	0.491715	0.270102	0	0	0.230595	0.0868727	-0.405442	0.0843841	-0.0409903	0	0	-0.0430041	-0.106214	0.350253	0.334714	-0.410671	-0.270206	1.56997	1.5708	0	0	0.466182	-0.51155	0.0477045	1.7179	0.97769	0	0
0.07	-2.67013	1.40884	-2.312	0.89849	-0.692779	0.90689	-0.338939	-0.192439	-0.311412	0.551875	0.247868	0	0	0.223473	0.0920936	-0.424664	0.108715	-0.06724	0	0	-0.0471808	-0.113597	0.346789	0.332675	-0.39738	-0.346439	1.58786	1.5708	0	0	0.459279	-0.513208	0.0425123	1.72191	0.989934	0	0
0.08	-2.66248	1.3958	-2.31707	0.899138	-0.678977	0.908063	-0.323068	-0.217586	-0.305853	0.622995	0.204064	0	0	0.219312	0.0952651	-0.447269	0.149112	-0.0729928	0	0	-0.0544392	-0.126113	0.343427	0.328016	-0.402006	-0.268024	1.56863	1.5708	0	0	0.459216	-0.514604	0.040059	1.72159	1.00714	0	0
0.09	-2.66816	1.38477	-2.30919	0.898685	-0.664569	0.90976	-0.304214	-0.25433	-0.285297	0.707147	0.211352	0	0	0.210823	0.0971937	-0.456058	0.184449	-0.0704837	0	0	-0.0616264	-0.132626	0.338199	0.324681	-0.399711	-0.265548	1.56811	1.5708	0	0	0.456226	-0.515553	0.0380842	1.71931	1.0124	0	0
0.1	-2.64391	1.3744	-2.32665	0.898808	-0.651411	0.910918	-0.268281	-0.278504	-0.269445	0.793037	0.14239	0	0	0.207926	0.102989	-0.46219	0.219442	-0.0631342	0	0	-0.0668904	-0.145496	0.330512	0.321834	-0.39636	-0.262588	1.56807	1.5708	0	0	0.456023	-0.518885	0.0367097	1.72236	1.01761	0	0
0.11	-2.68845	1.35401	-2.26266	0.897346	-0.636709	0.91475	-0.249119	-0.292725	-0.260459	0.865257	-0.0233869	0	0	0.17573	0.113665	-0.452378	0.235227	-0.0593038	0	0	-0.0904492	-0.151321	0.309542	0.31803	-0.39704	-0.258515	1.56888	1.5708	0	0	0.454954	-0.520513	0.0369077	1.7244	1.01669	0	0
0.12	-2.5875	1.35513	-2.3627	0.897885	-0.625317	0.912761	-0.190208	-0.331954	-0.262703	0.941018	-0.0964404	0	0	0.195055	0.124415	-0.464514	0.265267	-0.0489972	0	0	-0.0747232	-0.169867	0.30955	0.317089	-0.39543	-0.253486	1.56941	1.5708	0	0	0.458984	-0.528101	0.0409799	1.72568	1.01292	0	0
0.13	-2.57337	1.34808	-2.36757	0.897477	-0.612525	0.913514	-0.146592	-0.351096	-0.242632	1.01764	-0.176957	0	0	0.18518	0.133226	-0.463991	0.281399	-0.0377092	0	0	-0.0781038	-0.176824	0.299914	0.316552	-0.397	-0.24787	1.57004	1.5708	0	0	0.460543	-0.533156	0.0440125	1.72514	1.01134	0	0
0.14	-2.56985	1.34108	-2.36219	0.897083	-0.599839	0.914347	-0.103843	-0.366746	-0.221674	1.08907	-0.2602	0	0	0.170603	0.14284	-0.457872	0.291475	-0.0244932	0	0	-0.0840292	-0.181093	0.287468	0.320421	-0.398257	-0.238876	1.56988	1.5708	0	0	0.454155	-0.53158	-0.0159548	1.72902	0.578339	0	0
0.15	-2.58003	1.33344	-2.34361	0.896667	-0.587413	0.915497	-0.0645663	-0.378474	-0.200604	1.15265	-0.326204	0	0	0.151192	0.152637	-0.446258	0.296602	-0.0144038	0	0	-0.0918507	-0.183172	0.27972	0.321314	-0.401131	-0.236414	1.56976	1.5708	0	0	0.464023	-0.543681	0.0516006	1.7233	0.991886	0	0
0.16	-2.60274	1.3248	-2.313	0.896319	-0.57519	0.917095	-0.0310108	-0.385512	-0.179799	1.20965	-0.350936	0	0	0.127788	0.162011	-0.429485	0.298129	-0.0129222	0	0	-0.104297	-0.182963	0.269603	0.325674	-0.402866	-0.23262	1.56883	1.5708	0	0	0.466151	-0.547111	0.0538166	1.7224	0.988533	0	0
0.17	-2.63642	1.3159	-2.27165	0.896058	-0.563229	0.919088	-0.00199095	-0.386827	-0.15997	1.26446	-0.325834	0	0	0.102375	0.169146	-0.408047	0.297989	-0.0189421	0	0	-0.119894	-0.180065	0.259667	0.330415	-0.404123	-0.23117	1.5681	1.5708	0	0	0.468608	-0.549741	0.0570271	1.72214	0.981003	0	0
0.18	-2.66979	1.30953	-2.23258	0.896134	-0.551258	0.921104	0.0304361	-0.383191	-0.138232	1.32259	-0.259075	0	0	0.0796739	0.172481	-0.387687	0.299524	-0.0244303	0	0	-0.132505	-0.174973	0.252796	0.333221	-0.403897	-0.233051	1.56748	1.5708	0	0	0.470453	-0.551702	0.063611	1.71959	0.976542	0	0
0.19	-2.71408	1.30888	-2.18559	0.897171	-0.539686	0.923172	0.0733636	-0.364897	-0.118573	1.39693	-0.0926381	0	0	0.0619157	0.165379	-0.372641	0.30606	-0.023329	0	0	-0.141338	-0.164445	0.249997	0.334488	-0.401496	-0.237412	1.56601	1.5708	0	0	0.471786	-0.553176	0.0725508	1.71328	0.973936	0	0
